<svg width="562" height="126" viewBox="0 0 562 126" fill="none" xmlns="http://www.w3.org/2000/svg">
<rect x="36.7488" y="31" width="525" height="95" rx="25" fill="#ECE5DD"/>
<path d="M22.1942 38.0742C20.2789 34.7249 22.7179 30.5603 26.576 30.5923L70.7155 30.958C74.5597 30.9899 76.9314 35.1673 74.9886 38.4847L52.7615 76.437C50.8187 79.7543 46.015 79.7294 44.1065 76.3922L22.1942 38.0742Z" fill="#ECE5DD"/>
<path d="M72.5909 65.7273L79.0682 84.6818H79.3295L85.8068 65.7273H89.6023L81.2273 89H77.1705L68.7955 65.7273H72.5909ZM96.0511 89.3864C94.9451 89.3864 93.9451 89.1818 93.0511 88.7727C92.1572 88.3561 91.4489 87.7538 90.9261 86.9659C90.411 86.178 90.1534 85.2121 90.1534 84.0682C90.1534 83.0833 90.3428 82.2727 90.7216 81.6364C91.1004 81 91.6117 80.4962 92.2557 80.125C92.8996 79.7538 93.6193 79.4735 94.4148 79.2841C95.2102 79.0947 96.0208 78.9508 96.8466 78.8523C97.892 78.7311 98.7405 78.6326 99.392 78.5568C100.044 78.4735 100.517 78.3409 100.812 78.1591C101.108 77.9773 101.256 77.6818 101.256 77.2727V77.1932C101.256 76.2008 100.975 75.4318 100.415 74.8864C99.8617 74.3409 99.036 74.0682 97.9375 74.0682C96.7936 74.0682 95.892 74.322 95.233 74.8295C94.5814 75.3295 94.1307 75.8864 93.8807 76.5L90.6875 75.7727C91.0663 74.7121 91.6193 73.8561 92.3466 73.2045C93.0814 72.5455 93.9261 72.0682 94.8807 71.7727C95.8352 71.4697 96.839 71.3182 97.892 71.3182C98.589 71.3182 99.3277 71.4015 100.108 71.5682C100.896 71.7273 101.631 72.0227 102.312 72.4545C103.002 72.8864 103.566 73.5038 104.006 74.3068C104.445 75.1023 104.665 76.1364 104.665 77.4091V89H101.347V86.6136H101.21C100.991 87.053 100.661 87.4848 100.222 87.9091C99.7822 88.3333 99.2178 88.6856 98.5284 88.9659C97.839 89.2462 97.0133 89.3864 96.0511 89.3864ZM96.7898 86.6591C97.7292 86.6591 98.5322 86.4735 99.1989 86.1023C99.8731 85.7311 100.384 85.2462 100.733 84.6477C101.089 84.0417 101.267 83.3939 101.267 82.7045V80.4545C101.146 80.5758 100.911 80.6894 100.562 80.7955C100.222 80.8939 99.8314 80.9811 99.392 81.0568C98.9527 81.125 98.5246 81.1894 98.108 81.25C97.6913 81.303 97.3428 81.3485 97.0625 81.3864C96.4034 81.4697 95.8011 81.6098 95.2557 81.8068C94.7178 82.0038 94.286 82.2879 93.9602 82.6591C93.642 83.0227 93.483 83.5076 93.483 84.1136C93.483 84.9545 93.7936 85.5909 94.4148 86.0227C95.036 86.447 95.8277 86.6591 96.7898 86.6591ZM109.19 89V71.5455H112.452V74.3864H112.668C113.031 73.4242 113.626 72.6742 114.452 72.1364C115.277 71.5909 116.266 71.3182 117.418 71.3182C118.584 71.3182 119.562 71.5909 120.349 72.1364C121.145 72.6818 121.732 73.4318 122.111 74.3864H122.293C122.709 73.4545 123.372 72.7121 124.281 72.1591C125.19 71.5985 126.274 71.3182 127.531 71.3182C129.115 71.3182 130.406 71.8144 131.406 72.8068C132.414 73.7992 132.918 75.2955 132.918 77.2955V89H129.52V77.6136C129.52 76.4318 129.198 75.5758 128.554 75.0455C127.91 74.5152 127.141 74.25 126.247 74.25C125.141 74.25 124.281 74.5909 123.668 75.2727C123.054 75.947 122.747 76.8144 122.747 77.875V89H119.361V77.3977C119.361 76.4508 119.065 75.6894 118.474 75.1136C117.884 74.5379 117.115 74.25 116.168 74.25C115.524 74.25 114.929 74.4205 114.384 74.7614C113.846 75.0947 113.41 75.5606 113.077 76.1591C112.751 76.7576 112.588 77.4508 112.588 78.2386V89H109.19ZM144.824 89.3523C143.188 89.3523 141.759 88.9773 140.54 88.2273C139.32 87.4773 138.373 86.428 137.699 85.0795C137.025 83.7311 136.688 82.1553 136.688 80.3523C136.688 78.5417 137.025 76.9583 137.699 75.6023C138.373 74.2462 139.32 73.1932 140.54 72.4432C141.759 71.6932 143.188 71.3182 144.824 71.3182C146.46 71.3182 147.888 71.6932 149.108 72.4432C150.328 73.1932 151.275 74.2462 151.949 75.6023C152.623 76.9583 152.96 78.5417 152.96 80.3523C152.96 82.1553 152.623 83.7311 151.949 85.0795C151.275 86.428 150.328 87.4773 149.108 88.2273C147.888 88.9773 146.46 89.3523 144.824 89.3523ZM144.835 86.5C145.896 86.5 146.775 86.2197 147.472 85.6591C148.169 85.0985 148.684 84.3523 149.017 83.4205C149.358 82.4886 149.528 81.4621 149.528 80.3409C149.528 79.2273 149.358 78.2045 149.017 77.2727C148.684 76.3333 148.169 75.5795 147.472 75.0114C146.775 74.4432 145.896 74.1591 144.835 74.1591C143.767 74.1591 142.881 74.4432 142.176 75.0114C141.479 75.5795 140.96 76.3333 140.619 77.2727C140.286 78.2045 140.119 79.2273 140.119 80.3409C140.119 81.4621 140.286 82.4886 140.619 83.4205C140.96 84.3523 141.479 85.0985 142.176 85.6591C142.881 86.2197 143.767 86.5 144.835 86.5ZM169.832 75.8068L166.753 76.3523C166.624 75.9583 166.42 75.5833 166.139 75.2273C165.866 74.8712 165.495 74.5795 165.026 74.3523C164.556 74.125 163.969 74.0114 163.264 74.0114C162.302 74.0114 161.499 74.2273 160.855 74.6591C160.211 75.0833 159.889 75.6326 159.889 76.3068C159.889 76.8902 160.105 77.3598 160.537 77.7159C160.969 78.072 161.666 78.3636 162.628 78.5909L165.401 79.2273C167.007 79.5985 168.204 80.1705 168.991 80.9432C169.779 81.7159 170.173 82.7197 170.173 83.9545C170.173 85 169.87 85.9318 169.264 86.75C168.666 87.5606 167.829 88.197 166.753 88.6591C165.685 89.1212 164.446 89.3523 163.037 89.3523C161.082 89.3523 159.488 88.9356 158.253 88.1023C157.018 87.2614 156.26 86.0682 155.98 84.5227L159.264 84.0227C159.469 84.8788 159.889 85.5265 160.526 85.9659C161.162 86.3977 161.991 86.6136 163.014 86.6136C164.128 86.6136 165.018 86.3826 165.685 85.9205C166.351 85.4508 166.685 84.8788 166.685 84.2045C166.685 83.6591 166.48 83.2008 166.071 82.8295C165.67 82.4583 165.052 82.178 164.219 81.9886L161.264 81.3409C159.635 80.9697 158.431 80.3788 157.651 79.5682C156.878 78.7576 156.491 77.7311 156.491 76.4886C156.491 75.4583 156.779 74.5568 157.355 73.7841C157.931 73.0114 158.726 72.4091 159.741 71.9773C160.757 71.5379 161.92 71.3182 163.23 71.3182C165.116 71.3182 166.601 71.7273 167.685 72.5455C168.768 73.3561 169.484 74.4432 169.832 75.8068ZM189.73 89.3523C188.041 89.3523 186.586 88.9697 185.366 88.2045C184.154 87.4318 183.223 86.3674 182.571 85.0114C181.92 83.6553 181.594 82.1023 181.594 80.3523C181.594 78.5795 181.927 77.0152 182.594 75.6591C183.26 74.2955 184.2 73.2311 185.412 72.4659C186.624 71.7008 188.052 71.3182 189.696 71.3182C191.022 71.3182 192.204 71.5644 193.241 72.0568C194.279 72.5417 195.116 73.2235 195.753 74.1023C196.397 74.9811 196.779 76.0076 196.901 77.1818H193.594C193.412 76.3636 192.995 75.6591 192.344 75.0682C191.7 74.4773 190.836 74.1818 189.753 74.1818C188.806 74.1818 187.976 74.4318 187.264 74.9318C186.56 75.4242 186.01 76.1288 185.616 77.0455C185.223 77.9545 185.026 79.0303 185.026 80.2727C185.026 81.5455 185.219 82.6439 185.605 83.5682C185.991 84.4924 186.537 85.2083 187.241 85.7159C187.954 86.2235 188.791 86.4773 189.753 86.4773C190.397 86.4773 190.98 86.3598 191.503 86.125C192.033 85.8826 192.476 85.5379 192.832 85.0909C193.196 84.6439 193.45 84.1061 193.594 83.4773H196.901C196.779 84.6061 196.412 85.6136 195.798 86.5C195.185 87.3864 194.363 88.0833 193.332 88.5909C192.31 89.0985 191.109 89.3523 189.73 89.3523ZM207.886 89.3523C206.25 89.3523 204.822 88.9773 203.602 88.2273C202.383 87.4773 201.436 86.428 200.761 85.0795C200.087 83.7311 199.75 82.1553 199.75 80.3523C199.75 78.5417 200.087 76.9583 200.761 75.6023C201.436 74.2462 202.383 73.1932 203.602 72.4432C204.822 71.6932 206.25 71.3182 207.886 71.3182C209.523 71.3182 210.951 71.6932 212.17 72.4432C213.39 73.1932 214.337 74.2462 215.011 75.6023C215.686 76.9583 216.023 78.5417 216.023 80.3523C216.023 82.1553 215.686 83.7311 215.011 85.0795C214.337 86.428 213.39 87.4773 212.17 88.2273C210.951 88.9773 209.523 89.3523 207.886 89.3523ZM207.898 86.5C208.958 86.5 209.837 86.2197 210.534 85.6591C211.231 85.0985 211.746 84.3523 212.08 83.4205C212.42 82.4886 212.591 81.4621 212.591 80.3409C212.591 79.2273 212.42 78.2045 212.08 77.2727C211.746 76.3333 211.231 75.5795 210.534 75.0114C209.837 74.4432 208.958 74.1591 207.898 74.1591C206.83 74.1591 205.943 74.4432 205.239 75.0114C204.542 75.5795 204.023 76.3333 203.682 77.2727C203.348 78.2045 203.182 79.2273 203.182 80.3409C203.182 81.4621 203.348 82.4886 203.682 83.4205C204.023 84.3523 204.542 85.0985 205.239 85.6591C205.943 86.2197 206.83 86.5 207.898 86.5ZM219.815 89V71.5455H223.077V74.3864H223.293C223.656 73.4242 224.251 72.6742 225.077 72.1364C225.902 71.5909 226.891 71.3182 228.043 71.3182C229.209 71.3182 230.187 71.5909 230.974 72.1364C231.77 72.6818 232.357 73.4318 232.736 74.3864H232.918C233.334 73.4545 233.997 72.7121 234.906 72.1591C235.815 71.5985 236.899 71.3182 238.156 71.3182C239.74 71.3182 241.031 71.8144 242.031 72.8068C243.039 73.7992 243.543 75.2955 243.543 77.2955V89H240.145V77.6136C240.145 76.4318 239.823 75.5758 239.179 75.0455C238.535 74.5152 237.766 74.25 236.872 74.25C235.766 74.25 234.906 74.5909 234.293 75.2727C233.679 75.947 233.372 76.8144 233.372 77.875V89H229.986V77.3977C229.986 76.4508 229.69 75.6894 229.099 75.1136C228.509 74.5379 227.74 74.25 226.793 74.25C226.149 74.25 225.554 74.4205 225.009 74.7614C224.471 75.0947 224.035 75.5606 223.702 76.1591C223.376 76.7576 223.213 77.4508 223.213 78.2386V89H219.815ZM255.619 89.3523C253.9 89.3523 252.419 88.9848 251.176 88.25C249.941 87.5076 248.987 86.4659 248.312 85.125C247.646 83.7765 247.312 82.197 247.312 80.3864C247.312 78.5985 247.646 77.0227 248.312 75.6591C248.987 74.2955 249.926 73.2311 251.131 72.4659C252.343 71.7008 253.759 71.3182 255.381 71.3182C256.366 71.3182 257.32 71.4811 258.244 71.8068C259.169 72.1326 259.998 72.6439 260.733 73.3409C261.468 74.0379 262.047 74.9432 262.472 76.0568C262.896 77.1629 263.108 78.5076 263.108 80.0909V81.2955H249.233V78.75H259.778C259.778 77.8561 259.597 77.0644 259.233 76.375C258.869 75.678 258.358 75.1288 257.699 74.7273C257.047 74.3258 256.282 74.125 255.403 74.125C254.449 74.125 253.616 74.3598 252.903 74.8295C252.199 75.2917 251.653 75.8977 251.267 76.6477C250.888 77.3902 250.699 78.197 250.699 79.0682V81.0568C250.699 82.2235 250.903 83.2159 251.312 84.0341C251.729 84.8523 252.309 85.4773 253.051 85.9091C253.794 86.3333 254.661 86.5455 255.653 86.5455C256.297 86.5455 256.884 86.4545 257.415 86.2727C257.945 86.0833 258.403 85.803 258.79 85.4318C259.176 85.0606 259.472 84.6023 259.676 84.0568L262.892 84.6364C262.634 85.5833 262.172 86.4129 261.506 87.125C260.847 87.8295 260.017 88.3788 259.017 88.7727C258.025 89.1591 256.892 89.3523 255.619 89.3523ZM274.23 89.3523C272.541 89.3523 271.086 88.9697 269.866 88.2045C268.654 87.4318 267.723 86.3674 267.071 85.0114C266.42 83.6553 266.094 82.1023 266.094 80.3523C266.094 78.5795 266.427 77.0152 267.094 75.6591C267.76 74.2955 268.7 73.2311 269.912 72.4659C271.124 71.7008 272.552 71.3182 274.196 71.3182C275.522 71.3182 276.704 71.5644 277.741 72.0568C278.779 72.5417 279.616 73.2235 280.253 74.1023C280.897 74.9811 281.279 76.0076 281.401 77.1818H278.094C277.912 76.3636 277.495 75.6591 276.844 75.0682C276.2 74.4773 275.336 74.1818 274.253 74.1818C273.306 74.1818 272.476 74.4318 271.764 74.9318C271.06 75.4242 270.51 76.1288 270.116 77.0455C269.723 77.9545 269.526 79.0303 269.526 80.2727C269.526 81.5455 269.719 82.6439 270.105 83.5682C270.491 84.4924 271.037 85.2083 271.741 85.7159C272.454 86.2235 273.291 86.4773 274.253 86.4773C274.897 86.4773 275.48 86.3598 276.003 86.125C276.533 85.8826 276.976 85.5379 277.332 85.0909C277.696 84.6439 277.95 84.1061 278.094 83.4773H281.401C281.279 84.6061 280.912 85.6136 280.298 86.5C279.685 87.3864 278.863 88.0833 277.832 88.5909C276.81 89.0985 275.609 89.3523 274.23 89.3523ZM273.003 88.9091H275.23L275.048 89.8409C275.707 89.947 276.283 90.2121 276.776 90.6364C277.268 91.0606 277.514 91.7008 277.514 92.5568C277.522 93.5795 277.079 94.4091 276.185 95.0455C275.298 95.6818 274.014 96 272.332 96L272.264 94.1023C273.052 94.1023 273.688 93.9886 274.173 93.7614C274.666 93.5341 274.916 93.1667 274.923 92.6591C274.931 92.1515 274.741 91.7955 274.355 91.5909C273.976 91.3864 273.37 91.2424 272.537 91.1591L273.003 88.9091ZM290.114 89.3864C289.008 89.3864 288.008 89.1818 287.114 88.7727C286.22 88.3561 285.511 87.7538 284.989 86.9659C284.473 86.178 284.216 85.2121 284.216 84.0682C284.216 83.0833 284.405 82.2727 284.784 81.6364C285.163 81 285.674 80.4962 286.318 80.125C286.962 79.7538 287.682 79.4735 288.477 79.2841C289.273 79.0947 290.083 78.9508 290.909 78.8523C291.955 78.7311 292.803 78.6326 293.455 78.5568C294.106 78.4735 294.58 78.3409 294.875 78.1591C295.17 77.9773 295.318 77.6818 295.318 77.2727V77.1932C295.318 76.2008 295.038 75.4318 294.477 74.8864C293.924 74.3409 293.098 74.0682 292 74.0682C290.856 74.0682 289.955 74.322 289.295 74.8295C288.644 75.3295 288.193 75.8864 287.943 76.5L284.75 75.7727C285.129 74.7121 285.682 73.8561 286.409 73.2045C287.144 72.5455 287.989 72.0682 288.943 71.7727C289.898 71.4697 290.902 71.3182 291.955 71.3182C292.652 71.3182 293.39 71.4015 294.17 71.5682C294.958 71.7273 295.693 72.0227 296.375 72.4545C297.064 72.8864 297.629 73.5038 298.068 74.3068C298.508 75.1023 298.727 76.1364 298.727 77.4091V89H295.409V86.6136H295.273C295.053 87.053 294.723 87.4848 294.284 87.9091C293.845 88.3333 293.28 88.6856 292.591 88.9659C291.902 89.2462 291.076 89.3864 290.114 89.3864ZM290.852 86.6591C291.792 86.6591 292.595 86.4735 293.261 86.1023C293.936 85.7311 294.447 85.2462 294.795 84.6477C295.152 84.0417 295.33 83.3939 295.33 82.7045V80.4545C295.208 80.5758 294.973 80.6894 294.625 80.7955C294.284 80.8939 293.894 80.9811 293.455 81.0568C293.015 81.125 292.587 81.1894 292.17 81.25C291.754 81.303 291.405 81.3485 291.125 81.3864C290.466 81.4697 289.864 81.6098 289.318 81.8068C288.78 82.0038 288.348 82.2879 288.023 82.6591C287.705 83.0227 287.545 83.5076 287.545 84.1136C287.545 84.9545 287.856 85.5909 288.477 86.0227C289.098 86.447 289.89 86.6591 290.852 86.6591ZM303.253 89V71.5455H306.537V74.3182H306.719C307.037 73.3788 307.598 72.6402 308.401 72.1023C309.211 71.5568 310.128 71.2841 311.151 71.2841C311.363 71.2841 311.613 71.2917 311.901 71.3068C312.196 71.322 312.427 71.3409 312.594 71.3636V74.6136C312.457 74.5758 312.215 74.5341 311.866 74.4886C311.518 74.4356 311.17 74.4091 310.821 74.4091C310.018 74.4091 309.302 74.5795 308.673 74.9205C308.052 75.2538 307.56 75.7197 307.196 76.3182C306.832 76.9091 306.651 77.5833 306.651 78.3409V89H303.253ZM319.818 65.7273L319.523 82.3068H316.375L316.08 65.7273H319.818ZM317.955 89.2159C317.326 89.2159 316.788 88.9962 316.341 88.5568C315.894 88.1098 315.674 87.572 315.682 86.9432C315.674 86.322 315.894 85.7917 316.341 85.3523C316.788 84.9053 317.326 84.6818 317.955 84.6818C318.568 84.6818 319.098 84.9053 319.545 85.3523C319.992 85.7917 320.22 86.322 320.227 86.9432C320.22 87.3598 320.11 87.7424 319.898 88.0909C319.693 88.4318 319.42 88.7045 319.08 88.9091C318.739 89.1136 318.364 89.2159 317.955 89.2159Z" fill="black"/>
</svg>
