<svg width="562" height="126" viewBox="0 0 562 126" fill="none" xmlns="http://www.w3.org/2000/svg">
<rect x="36.7488" y="31" width="525" height="95" rx="25" fill="#ECE5DD"/>
<path d="M22.1942 38.0742C20.2789 34.7249 22.7179 30.5603 26.576 30.5923L70.7155 30.958C74.5597 30.9899 76.9314 35.1673 74.9886 38.4847L52.7615 76.437C50.8187 79.7543 46.015 79.7294 44.1065 76.3922L22.1942 38.0742Z" fill="#ECE5DD"/>
<path d="M90.7727 77.3636C90.7727 79.8485 90.3182 81.9848 89.4091 83.7727C88.5 85.553 87.2538 86.9242 85.6705 87.8864C84.0947 88.8409 82.303 89.3182 80.2955 89.3182C78.2803 89.3182 76.4811 88.8409 74.8977 87.8864C73.322 86.9242 72.0795 85.5492 71.1705 83.7614C70.2614 81.9735 69.8068 79.8409 69.8068 77.3636C69.8068 74.8788 70.2614 72.7462 71.1705 70.9659C72.0795 69.178 73.322 67.8068 74.8977 66.8523C76.4811 65.8902 78.2803 65.4091 80.2955 65.4091C82.303 65.4091 84.0947 65.8902 85.6705 66.8523C87.2538 67.8068 88.5 69.178 89.4091 70.9659C90.3182 72.7462 90.7727 74.8788 90.7727 77.3636ZM87.2955 77.3636C87.2955 75.4697 86.9886 73.875 86.375 72.5795C85.7689 71.2765 84.9356 70.2917 83.875 69.625C82.822 68.9508 81.6288 68.6136 80.2955 68.6136C78.9545 68.6136 77.7576 68.9508 76.7045 69.625C75.6515 70.2917 74.8182 71.2765 74.2045 72.5795C73.5985 73.875 73.2955 75.4697 73.2955 77.3636C73.2955 79.2576 73.5985 80.8561 74.2045 82.1591C74.8182 83.4545 75.6515 84.4394 76.7045 85.1136C77.7576 85.7803 78.9545 86.1136 80.2955 86.1136C81.6288 86.1136 82.822 85.7803 83.875 85.1136C84.9356 84.4394 85.7689 83.4545 86.375 82.1591C86.9886 80.8561 87.2955 79.2576 87.2955 77.3636ZM98.2756 65.7273V89H94.8778V65.7273H98.2756ZM107.926 89.3864C106.82 89.3864 105.82 89.1818 104.926 88.7727C104.032 88.3561 103.324 87.7538 102.801 86.9659C102.286 86.178 102.028 85.2121 102.028 84.0682C102.028 83.0833 102.218 82.2727 102.597 81.6364C102.975 81 103.487 80.4962 104.131 80.125C104.775 79.7538 105.494 79.4735 106.29 79.2841C107.085 79.0947 107.896 78.9508 108.722 78.8523C109.767 78.7311 110.616 78.6326 111.267 78.5568C111.919 78.4735 112.392 78.3409 112.688 78.1591C112.983 77.9773 113.131 77.6818 113.131 77.2727V77.1932C113.131 76.2008 112.85 75.4318 112.29 74.8864C111.737 74.3409 110.911 74.0682 109.812 74.0682C108.669 74.0682 107.767 74.322 107.108 74.8295C106.456 75.3295 106.006 75.8864 105.756 76.5L102.562 75.7727C102.941 74.7121 103.494 73.8561 104.222 73.2045C104.956 72.5455 105.801 72.0682 106.756 71.7727C107.71 71.4697 108.714 71.3182 109.767 71.3182C110.464 71.3182 111.203 71.4015 111.983 71.5682C112.771 71.7273 113.506 72.0227 114.188 72.4545C114.877 72.8864 115.441 73.5038 115.881 74.3068C116.32 75.1023 116.54 76.1364 116.54 77.4091V89H113.222V86.6136H113.085C112.866 87.053 112.536 87.4848 112.097 87.9091C111.657 88.3333 111.093 88.6856 110.403 88.9659C109.714 89.2462 108.888 89.3864 107.926 89.3864ZM108.665 86.6591C109.604 86.6591 110.407 86.4735 111.074 86.1023C111.748 85.7311 112.259 85.2462 112.608 84.6477C112.964 84.0417 113.142 83.3939 113.142 82.7045V80.4545C113.021 80.5758 112.786 80.6894 112.438 80.7955C112.097 80.8939 111.706 80.9811 111.267 81.0568C110.828 81.125 110.4 81.1894 109.983 81.25C109.566 81.303 109.218 81.3485 108.938 81.3864C108.278 81.4697 107.676 81.6098 107.131 81.8068C106.593 82.0038 106.161 82.2879 105.835 82.6591C105.517 83.0227 105.358 83.5076 105.358 84.1136C105.358 84.9545 105.669 85.5909 106.29 86.0227C106.911 86.447 107.703 86.6591 108.665 86.6591ZM108.54 69.2159L111.199 63.9773H114.778L111.256 69.2159H108.54ZM125.486 85.8182L125.315 87.0568C125.202 87.9659 125.009 88.9129 124.736 89.8977C124.471 90.8902 124.194 91.8106 123.906 92.6591C123.626 93.5076 123.395 94.1818 123.213 94.6818H120.804C120.902 94.2121 121.039 93.5758 121.213 92.7727C121.387 91.9773 121.558 91.0871 121.724 90.1023C121.891 89.1174 122.016 88.1136 122.099 87.0909L122.213 85.8182H125.486ZM145.73 89.3523C144.041 89.3523 142.586 88.9697 141.366 88.2045C140.154 87.4318 139.223 86.3674 138.571 85.0114C137.92 83.6553 137.594 82.1023 137.594 80.3523C137.594 78.5795 137.927 77.0152 138.594 75.6591C139.26 74.2955 140.2 73.2311 141.412 72.4659C142.624 71.7008 144.052 71.3182 145.696 71.3182C147.022 71.3182 148.204 71.5644 149.241 72.0568C150.279 72.5417 151.116 73.2235 151.753 74.1023C152.397 74.9811 152.779 76.0076 152.901 77.1818H149.594C149.412 76.3636 148.995 75.6591 148.344 75.0682C147.7 74.4773 146.836 74.1818 145.753 74.1818C144.806 74.1818 143.976 74.4318 143.264 74.9318C142.56 75.4242 142.01 76.1288 141.616 77.0455C141.223 77.9545 141.026 79.0303 141.026 80.2727C141.026 81.5455 141.219 82.6439 141.605 83.5682C141.991 84.4924 142.537 85.2083 143.241 85.7159C143.954 86.2235 144.791 86.4773 145.753 86.4773C146.397 86.4773 146.98 86.3598 147.503 86.125C148.033 85.8826 148.476 85.5379 148.832 85.0909C149.196 84.6439 149.45 84.1061 149.594 83.4773H152.901C152.779 84.6061 152.412 85.6136 151.798 86.5C151.185 87.3864 150.363 88.0833 149.332 88.5909C148.31 89.0985 147.109 89.3523 145.73 89.3523ZM163.886 89.3523C162.25 89.3523 160.822 88.9773 159.602 88.2273C158.383 87.4773 157.436 86.428 156.761 85.0795C156.087 83.7311 155.75 82.1553 155.75 80.3523C155.75 78.5417 156.087 76.9583 156.761 75.6023C157.436 74.2462 158.383 73.1932 159.602 72.4432C160.822 71.6932 162.25 71.3182 163.886 71.3182C165.523 71.3182 166.951 71.6932 168.17 72.4432C169.39 73.1932 170.337 74.2462 171.011 75.6023C171.686 76.9583 172.023 78.5417 172.023 80.3523C172.023 82.1553 171.686 83.7311 171.011 85.0795C170.337 86.428 169.39 87.4773 168.17 88.2273C166.951 88.9773 165.523 89.3523 163.886 89.3523ZM163.898 86.5C164.958 86.5 165.837 86.2197 166.534 85.6591C167.231 85.0985 167.746 84.3523 168.08 83.4205C168.42 82.4886 168.591 81.4621 168.591 80.3409C168.591 79.2273 168.42 78.2045 168.08 77.2727C167.746 76.3333 167.231 75.5795 166.534 75.0114C165.837 74.4432 164.958 74.1591 163.898 74.1591C162.83 74.1591 161.943 74.4432 161.239 75.0114C160.542 75.5795 160.023 76.3333 159.682 77.2727C159.348 78.2045 159.182 79.2273 159.182 80.3409C159.182 81.4621 159.348 82.4886 159.682 83.4205C160.023 84.3523 160.542 85.0985 161.239 85.6591C161.943 86.2197 162.83 86.5 163.898 86.5ZM175.815 89V71.5455H179.077V74.3864H179.293C179.656 73.4242 180.251 72.6742 181.077 72.1364C181.902 71.5909 182.891 71.3182 184.043 71.3182C185.209 71.3182 186.187 71.5909 186.974 72.1364C187.77 72.6818 188.357 73.4318 188.736 74.3864H188.918C189.334 73.4545 189.997 72.7121 190.906 72.1591C191.815 71.5985 192.899 71.3182 194.156 71.3182C195.74 71.3182 197.031 71.8144 198.031 72.8068C199.039 73.7992 199.543 75.2955 199.543 77.2955V89H196.145V77.6136C196.145 76.4318 195.823 75.5758 195.179 75.0455C194.535 74.5152 193.766 74.25 192.872 74.25C191.766 74.25 190.906 74.5909 190.293 75.2727C189.679 75.947 189.372 76.8144 189.372 77.875V89H185.986V77.3977C185.986 76.4508 185.69 75.6894 185.099 75.1136C184.509 74.5379 183.74 74.25 182.793 74.25C182.149 74.25 181.554 74.4205 181.009 74.7614C180.471 75.0947 180.035 75.5606 179.702 76.1591C179.376 76.7576 179.213 77.4508 179.213 78.2386V89H175.815ZM211.449 89.3523C209.813 89.3523 208.384 88.9773 207.165 88.2273C205.945 87.4773 204.998 86.428 204.324 85.0795C203.65 83.7311 203.312 82.1553 203.312 80.3523C203.312 78.5417 203.65 76.9583 204.324 75.6023C204.998 74.2462 205.945 73.1932 207.165 72.4432C208.384 71.6932 209.813 71.3182 211.449 71.3182C213.085 71.3182 214.513 71.6932 215.733 72.4432C216.953 73.1932 217.9 74.2462 218.574 75.6023C219.248 76.9583 219.585 78.5417 219.585 80.3523C219.585 82.1553 219.248 83.7311 218.574 85.0795C217.9 86.428 216.953 87.4773 215.733 88.2273C214.513 88.9773 213.085 89.3523 211.449 89.3523ZM211.46 86.5C212.521 86.5 213.4 86.2197 214.097 85.6591C214.794 85.0985 215.309 84.3523 215.642 83.4205C215.983 82.4886 216.153 81.4621 216.153 80.3409C216.153 79.2273 215.983 78.2045 215.642 77.2727C215.309 76.3333 214.794 75.5795 214.097 75.0114C213.4 74.4432 212.521 74.1591 211.46 74.1591C210.392 74.1591 209.506 74.4432 208.801 75.0114C208.104 75.5795 207.585 76.3333 207.244 77.2727C206.911 78.2045 206.744 79.2273 206.744 80.3409C206.744 81.4621 206.911 82.4886 207.244 83.4205C207.585 84.3523 208.104 85.0985 208.801 85.6591C209.506 86.2197 210.392 86.5 211.46 86.5ZM231.847 95.5455V71.5455H235.165V74.375H235.449C235.646 74.0114 235.93 73.5909 236.301 73.1136C236.672 72.6364 237.188 72.2197 237.847 71.8636C238.506 71.5 239.377 71.3182 240.46 71.3182C241.869 71.3182 243.127 71.6742 244.233 72.3864C245.339 73.0985 246.206 74.125 246.835 75.4659C247.472 76.8068 247.79 78.4205 247.79 80.3068C247.79 82.1932 247.475 83.8106 246.847 85.1591C246.218 86.5 245.354 87.5341 244.256 88.2614C243.157 88.9811 241.903 89.3409 240.494 89.3409C239.434 89.3409 238.566 89.1629 237.892 88.8068C237.225 88.4508 236.703 88.0341 236.324 87.5568C235.945 87.0795 235.653 86.6553 235.449 86.2841H235.244V95.5455H231.847ZM235.176 80.2727C235.176 81.5 235.354 82.5758 235.71 83.5C236.066 84.4242 236.581 85.1477 237.256 85.6705C237.93 86.1856 238.756 86.4432 239.733 86.4432C240.748 86.4432 241.597 86.1742 242.278 85.6364C242.96 85.0909 243.475 84.3523 243.824 83.4205C244.18 82.4886 244.358 81.4394 244.358 80.2727C244.358 79.1212 244.184 78.0871 243.835 77.1705C243.494 76.2538 242.979 75.5303 242.29 75C241.608 74.4697 240.756 74.2045 239.733 74.2045C238.748 74.2045 237.915 74.4583 237.233 74.9659C236.559 75.4735 236.047 76.1818 235.699 77.0909C235.35 78 235.176 79.0606 235.176 80.2727ZM258.949 89.3523C257.313 89.3523 255.884 88.9773 254.665 88.2273C253.445 87.4773 252.498 86.428 251.824 85.0795C251.15 83.7311 250.812 82.1553 250.812 80.3523C250.812 78.5417 251.15 76.9583 251.824 75.6023C252.498 74.2462 253.445 73.1932 254.665 72.4432C255.884 71.6932 257.313 71.3182 258.949 71.3182C260.585 71.3182 262.013 71.6932 263.233 72.4432C264.453 73.1932 265.4 74.2462 266.074 75.6023C266.748 76.9583 267.085 78.5417 267.085 80.3523C267.085 82.1553 266.748 83.7311 266.074 85.0795C265.4 86.428 264.453 87.4773 263.233 88.2273C262.013 88.9773 260.585 89.3523 258.949 89.3523ZM258.96 86.5C260.021 86.5 260.9 86.2197 261.597 85.6591C262.294 85.0985 262.809 84.3523 263.142 83.4205C263.483 82.4886 263.653 81.4621 263.653 80.3409C263.653 79.2273 263.483 78.2045 263.142 77.2727C262.809 76.3333 262.294 75.5795 261.597 75.0114C260.9 74.4432 260.021 74.1591 258.96 74.1591C257.892 74.1591 257.006 74.4432 256.301 75.0114C255.604 75.5795 255.085 76.3333 254.744 77.2727C254.411 78.2045 254.244 79.2273 254.244 80.3409C254.244 81.4621 254.411 82.4886 254.744 83.4205C255.085 84.3523 255.604 85.0985 256.301 85.6591C257.006 86.2197 257.892 86.5 258.96 86.5ZM283.957 75.8068L280.878 76.3523C280.749 75.9583 280.545 75.5833 280.264 75.2273C279.991 74.8712 279.62 74.5795 279.151 74.3523C278.681 74.125 278.094 74.0114 277.389 74.0114C276.427 74.0114 275.624 74.2273 274.98 74.6591C274.336 75.0833 274.014 75.6326 274.014 76.3068C274.014 76.8902 274.23 77.3598 274.662 77.7159C275.094 78.072 275.791 78.3636 276.753 78.5909L279.526 79.2273C281.132 79.5985 282.329 80.1705 283.116 80.9432C283.904 81.7159 284.298 82.7197 284.298 83.9545C284.298 85 283.995 85.9318 283.389 86.75C282.791 87.5606 281.954 88.197 280.878 88.6591C279.81 89.1212 278.571 89.3523 277.162 89.3523C275.207 89.3523 273.613 88.9356 272.378 88.1023C271.143 87.2614 270.385 86.0682 270.105 84.5227L273.389 84.0227C273.594 84.8788 274.014 85.5265 274.651 85.9659C275.287 86.3977 276.116 86.6136 277.139 86.6136C278.253 86.6136 279.143 86.3826 279.81 85.9205C280.476 85.4508 280.81 84.8788 280.81 84.2045C280.81 83.6591 280.605 83.2008 280.196 82.8295C279.795 82.4583 279.177 82.178 278.344 81.9886L275.389 81.3409C273.76 80.9697 272.556 80.3788 271.776 79.5682C271.003 78.7576 270.616 77.7311 270.616 76.4886C270.616 75.4583 270.904 74.5568 271.48 73.7841C272.056 73.0114 272.851 72.4091 273.866 71.9773C274.882 71.5379 276.045 71.3182 277.355 71.3182C279.241 71.3182 280.726 71.7273 281.81 72.5455C282.893 73.3561 283.609 74.4432 283.957 75.8068ZM301.114 75.8068L298.034 76.3523C297.905 75.9583 297.701 75.5833 297.42 75.2273C297.148 74.8712 296.777 74.5795 296.307 74.3523C295.837 74.125 295.25 74.0114 294.545 74.0114C293.583 74.0114 292.78 74.2273 292.136 74.6591C291.492 75.0833 291.17 75.6326 291.17 76.3068C291.17 76.8902 291.386 77.3598 291.818 77.7159C292.25 78.072 292.947 78.3636 293.909 78.5909L296.682 79.2273C298.288 79.5985 299.485 80.1705 300.273 80.9432C301.061 81.7159 301.455 82.7197 301.455 83.9545C301.455 85 301.152 85.9318 300.545 86.75C299.947 87.5606 299.11 88.197 298.034 88.6591C296.966 89.1212 295.727 89.3523 294.318 89.3523C292.364 89.3523 290.769 88.9356 289.534 88.1023C288.299 87.2614 287.542 86.0682 287.261 84.5227L290.545 84.0227C290.75 84.8788 291.17 85.5265 291.807 85.9659C292.443 86.3977 293.273 86.6136 294.295 86.6136C295.409 86.6136 296.299 86.3826 296.966 85.9205C297.633 85.4508 297.966 84.8788 297.966 84.2045C297.966 83.6591 297.761 83.2008 297.352 82.8295C296.951 82.4583 296.333 82.178 295.5 81.9886L292.545 81.3409C290.917 80.9697 289.712 80.3788 288.932 79.5682C288.159 78.7576 287.773 77.7311 287.773 76.4886C287.773 75.4583 288.061 74.5568 288.636 73.7841C289.212 73.0114 290.008 72.4091 291.023 71.9773C292.038 71.5379 293.201 71.3182 294.511 71.3182C296.398 71.3182 297.883 71.7273 298.966 72.5455C300.049 73.3561 300.765 74.4432 301.114 75.8068ZM312.543 89.3523C310.906 89.3523 309.478 88.9773 308.259 88.2273C307.039 87.4773 306.092 86.428 305.418 85.0795C304.743 83.7311 304.406 82.1553 304.406 80.3523C304.406 78.5417 304.743 76.9583 305.418 75.6023C306.092 74.2462 307.039 73.1932 308.259 72.4432C309.478 71.6932 310.906 71.3182 312.543 71.3182C314.179 71.3182 315.607 71.6932 316.827 72.4432C318.046 73.1932 318.993 74.2462 319.668 75.6023C320.342 76.9583 320.679 78.5417 320.679 80.3523C320.679 82.1553 320.342 83.7311 319.668 85.0795C318.993 86.428 318.046 87.4773 316.827 88.2273C315.607 88.9773 314.179 89.3523 312.543 89.3523ZM312.554 86.5C313.615 86.5 314.493 86.2197 315.19 85.6591C315.887 85.0985 316.402 84.3523 316.736 83.4205C317.077 82.4886 317.247 81.4621 317.247 80.3409C317.247 79.2273 317.077 78.2045 316.736 77.2727C316.402 76.3333 315.887 75.5795 315.19 75.0114C314.493 74.4432 313.615 74.1591 312.554 74.1591C311.486 74.1591 310.599 74.4432 309.895 75.0114C309.198 75.5795 308.679 76.3333 308.338 77.2727C308.005 78.2045 307.838 79.2273 307.838 80.3409C307.838 81.4621 308.005 82.4886 308.338 83.4205C308.679 84.3523 309.198 85.0985 309.895 85.6591C310.599 86.2197 311.486 86.5 312.554 86.5ZM338.02 89.3864C336.914 89.3864 335.914 89.1818 335.02 88.7727C334.126 88.3561 333.418 87.7538 332.895 86.9659C332.38 86.178 332.122 85.2121 332.122 84.0682C332.122 83.0833 332.312 82.2727 332.69 81.6364C333.069 81 333.58 80.4962 334.224 80.125C334.868 79.7538 335.588 79.4735 336.384 79.2841C337.179 79.0947 337.99 78.9508 338.815 78.8523C339.861 78.7311 340.709 78.6326 341.361 78.5568C342.012 78.4735 342.486 78.3409 342.781 78.1591C343.077 77.9773 343.224 77.6818 343.224 77.2727V77.1932C343.224 76.2008 342.944 75.4318 342.384 74.8864C341.83 74.3409 341.005 74.0682 339.906 74.0682C338.762 74.0682 337.861 74.322 337.202 74.8295C336.55 75.3295 336.099 75.8864 335.849 76.5L332.656 75.7727C333.035 74.7121 333.588 73.8561 334.315 73.2045C335.05 72.5455 335.895 72.0682 336.849 71.7727C337.804 71.4697 338.808 71.3182 339.861 71.3182C340.558 71.3182 341.296 71.4015 342.077 71.5682C342.865 71.7273 343.599 72.0227 344.281 72.4545C344.971 72.8864 345.535 73.5038 345.974 74.3068C346.414 75.1023 346.634 76.1364 346.634 77.4091V89H343.315V86.6136H343.179C342.959 87.053 342.63 87.4848 342.19 87.9091C341.751 88.3333 341.187 88.6856 340.497 88.9659C339.808 89.2462 338.982 89.3864 338.02 89.3864ZM338.759 86.6591C339.698 86.6591 340.501 86.4735 341.168 86.1023C341.842 85.7311 342.353 85.2462 342.702 84.6477C343.058 84.0417 343.236 83.3939 343.236 82.7045V80.4545C343.115 80.5758 342.88 80.6894 342.531 80.7955C342.19 80.8939 341.8 80.9811 341.361 81.0568C340.921 81.125 340.493 81.1894 340.077 81.25C339.66 81.303 339.312 81.3485 339.031 81.3864C338.372 81.4697 337.77 81.6098 337.224 81.8068C336.687 82.0038 336.255 82.2879 335.929 82.6591C335.611 83.0227 335.452 83.5076 335.452 84.1136C335.452 84.9545 335.762 85.5909 336.384 86.0227C337.005 86.447 337.796 86.6591 338.759 86.6591ZM351.159 71.5455H354.557V90.1364C354.557 91.303 354.345 92.2879 353.92 93.0909C353.504 93.8939 352.883 94.5038 352.057 94.9205C351.239 95.3371 350.227 95.5455 349.023 95.5455C348.902 95.5455 348.788 95.5455 348.682 95.5455C348.568 95.5455 348.451 95.5417 348.33 95.5341V92.6136C348.436 92.6136 348.53 92.6136 348.614 92.6136C348.689 92.6136 348.777 92.6136 348.875 92.6136C349.678 92.6136 350.258 92.3977 350.614 91.9659C350.977 91.5417 351.159 90.9242 351.159 90.1136V71.5455ZM352.841 68.8523C352.25 68.8523 351.742 68.6553 351.318 68.2614C350.902 67.8598 350.693 67.3826 350.693 66.8295C350.693 66.2689 350.902 65.7917 351.318 65.3977C351.742 64.9962 352.25 64.7955 352.841 64.7955C353.432 64.7955 353.936 64.9962 354.352 65.3977C354.777 65.7917 354.989 66.2689 354.989 66.8295C354.989 67.3826 354.777 67.8598 354.352 68.2614C353.936 68.6553 353.432 68.8523 352.841 68.8523ZM370.185 81.7614V71.5455H373.594V89H370.253V85.9773H370.071C369.67 86.9091 369.026 87.6856 368.139 88.3068C367.26 88.9205 366.166 89.2273 364.855 89.2273C363.734 89.2273 362.741 88.9811 361.878 88.4886C361.022 87.9886 360.348 87.25 359.855 86.2727C359.37 85.2955 359.128 84.0871 359.128 82.6477V71.5455H362.526V82.2386C362.526 83.428 362.855 84.375 363.514 85.0795C364.173 85.7841 365.029 86.1364 366.082 86.1364C366.719 86.1364 367.351 85.9773 367.98 85.6591C368.616 85.3409 369.143 84.8598 369.56 84.2159C369.984 83.572 370.192 82.7538 370.185 81.7614ZM384.693 89.3409C383.284 89.3409 382.027 88.9811 380.92 88.2614C379.822 87.5341 378.958 86.5 378.33 85.1591C377.708 83.8106 377.398 82.1932 377.398 80.3068C377.398 78.4205 377.712 76.8068 378.341 75.4659C378.977 74.125 379.848 73.0985 380.955 72.3864C382.061 71.6742 383.314 71.3182 384.716 71.3182C385.799 71.3182 386.67 71.5 387.33 71.8636C387.996 72.2197 388.511 72.6364 388.875 73.1136C389.246 73.5909 389.534 74.0114 389.739 74.375H389.943V65.7273H393.341V89H390.023V86.2841H389.739C389.534 86.6553 389.239 87.0795 388.852 87.5568C388.473 88.0341 387.951 88.4508 387.284 88.8068C386.617 89.1629 385.754 89.3409 384.693 89.3409ZM385.443 86.4432C386.42 86.4432 387.246 86.1856 387.92 85.6705C388.602 85.1477 389.117 84.4242 389.466 83.5C389.822 82.5758 390 81.5 390 80.2727C390 79.0606 389.826 78 389.477 77.0909C389.129 76.1818 388.617 75.4735 387.943 74.9659C387.269 74.4583 386.436 74.2045 385.443 74.2045C384.42 74.2045 383.568 74.4697 382.886 75C382.205 75.5303 381.689 76.2538 381.341 77.1705C381 78.0871 380.83 79.1212 380.83 80.2727C380.83 81.4394 381.004 82.4886 381.352 83.4205C381.701 84.3523 382.216 85.0909 382.898 85.6364C383.587 86.1742 384.436 86.4432 385.443 86.4432ZM403.27 89.3864C402.164 89.3864 401.164 89.1818 400.27 88.7727C399.376 88.3561 398.668 87.7538 398.145 86.9659C397.63 86.178 397.372 85.2121 397.372 84.0682C397.372 83.0833 397.562 82.2727 397.94 81.6364C398.319 81 398.83 80.4962 399.474 80.125C400.118 79.7538 400.838 79.4735 401.634 79.2841C402.429 79.0947 403.24 78.9508 404.065 78.8523C405.111 78.7311 405.959 78.6326 406.611 78.5568C407.262 78.4735 407.736 78.3409 408.031 78.1591C408.327 77.9773 408.474 77.6818 408.474 77.2727V77.1932C408.474 76.2008 408.194 75.4318 407.634 74.8864C407.08 74.3409 406.255 74.0682 405.156 74.0682C404.012 74.0682 403.111 74.322 402.452 74.8295C401.8 75.3295 401.349 75.8864 401.099 76.5L397.906 75.7727C398.285 74.7121 398.838 73.8561 399.565 73.2045C400.3 72.5455 401.145 72.0682 402.099 71.7727C403.054 71.4697 404.058 71.3182 405.111 71.3182C405.808 71.3182 406.546 71.4015 407.327 71.5682C408.115 71.7273 408.849 72.0227 409.531 72.4545C410.221 72.8864 410.785 73.5038 411.224 74.3068C411.664 75.1023 411.884 76.1364 411.884 77.4091V89H408.565V86.6136H408.429C408.209 87.053 407.88 87.4848 407.44 87.9091C407.001 88.3333 406.437 88.6856 405.747 88.9659C405.058 89.2462 404.232 89.3864 403.27 89.3864ZM404.009 86.6591C404.948 86.6591 405.751 86.4735 406.418 86.1023C407.092 85.7311 407.603 85.2462 407.952 84.6477C408.308 84.0417 408.486 83.3939 408.486 82.7045V80.4545C408.365 80.5758 408.13 80.6894 407.781 80.7955C407.44 80.8939 407.05 80.9811 406.611 81.0568C406.171 81.125 405.743 81.1894 405.327 81.25C404.91 81.303 404.562 81.3485 404.281 81.3864C403.622 81.4697 403.02 81.6098 402.474 81.8068C401.937 82.0038 401.505 82.2879 401.179 82.6591C400.861 83.0227 400.702 83.5076 400.702 84.1136C400.702 84.9545 401.012 85.5909 401.634 86.0227C402.255 86.447 403.046 86.6591 404.009 86.6591ZM416.409 89V71.5455H419.693V74.3182H419.875C420.193 73.3788 420.754 72.6402 421.557 72.1023C422.367 71.5568 423.284 71.2841 424.307 71.2841C424.519 71.2841 424.769 71.2917 425.057 71.3068C425.352 71.322 425.583 71.3409 425.75 71.3636V74.6136C425.614 74.5758 425.371 74.5341 425.023 74.4886C424.674 74.4356 424.326 74.4091 423.977 74.4091C423.174 74.4091 422.458 74.5795 421.83 74.9205C421.208 75.2538 420.716 75.7197 420.352 76.3182C419.989 76.9091 419.807 77.5833 419.807 78.3409V89H416.409ZM432.406 82.3068V82.0909C432.421 80.6818 432.562 79.5606 432.827 78.7273C433.099 77.8939 433.486 77.2197 433.986 76.7045C434.486 76.1894 435.088 75.7197 435.793 75.2955C436.247 75.0076 436.656 74.6856 437.02 74.3295C437.384 73.9735 437.671 73.5644 437.884 73.1023C438.096 72.6402 438.202 72.1288 438.202 71.5682C438.202 70.8939 438.043 70.3106 437.724 69.8182C437.406 69.3258 436.982 68.947 436.452 68.6818C435.929 68.4091 435.346 68.2727 434.702 68.2727C434.118 68.2727 433.562 68.3939 433.031 68.6364C432.501 68.8788 432.062 69.2576 431.713 69.7727C431.365 70.2803 431.164 70.9356 431.111 71.7386H427.656C427.709 70.375 428.054 69.2235 428.69 68.2841C429.327 67.3371 430.168 66.6212 431.213 66.1364C432.266 65.6515 433.429 65.4091 434.702 65.4091C436.096 65.4091 437.315 65.6705 438.361 66.1932C439.406 66.7083 440.217 67.4318 440.793 68.3636C441.376 69.2879 441.668 70.3674 441.668 71.6023C441.668 72.4508 441.535 73.2159 441.27 73.8977C441.005 74.572 440.626 75.1742 440.134 75.7045C439.649 76.2348 439.065 76.7045 438.384 77.1136C437.74 77.5152 437.217 77.9318 436.815 78.3636C436.421 78.7955 436.134 79.3068 435.952 79.8977C435.77 80.4886 435.671 81.2197 435.656 82.0909V82.3068H432.406ZM434.122 89.2159C433.501 89.2159 432.967 88.9962 432.52 88.5568C432.073 88.1098 431.849 87.572 431.849 86.9432C431.849 86.322 432.073 85.7917 432.52 85.3523C432.967 84.9053 433.501 84.6818 434.122 84.6818C434.736 84.6818 435.266 84.9053 435.713 85.3523C436.168 85.7917 436.395 86.322 436.395 86.9432C436.395 87.3598 436.289 87.7424 436.077 88.0909C435.872 88.4318 435.599 88.7045 435.259 88.9091C434.918 89.1136 434.539 89.2159 434.122 89.2159Z" fill="black"/>
</svg>
