<svg width="557" height="156" viewBox="0 0 557 156" fill="none" xmlns="http://www.w3.org/2000/svg">
<rect y="31" width="525" height="125" rx="25" fill="#DCF8C6"/>
<path d="M481.445 38.0742C479.53 34.7249 481.969 30.5603 485.827 30.5923L529.967 30.958C533.811 30.9899 536.183 35.1673 534.24 38.4847L512.013 76.437C510.07 79.7543 505.266 79.7294 503.358 76.3922L481.445 38.0742Z" fill="#DCF8C6"/>
<path d="M39.3068 72.0795C39.0871 71.3902 38.7917 70.7727 38.4205 70.2273C38.0568 69.6742 37.6212 69.2045 37.1136 68.8182C36.6061 68.4242 36.0265 68.125 35.375 67.9205C34.7311 67.7159 34.0227 67.6136 33.25 67.6136C31.9394 67.6136 30.7576 67.9508 29.7045 68.625C28.6515 69.2992 27.8182 70.2879 27.2045 71.5909C26.5985 72.8864 26.2955 74.4735 26.2955 76.3523C26.2955 78.2386 26.6023 79.8333 27.2159 81.1364C27.8295 82.4394 28.6705 83.428 29.7386 84.1023C30.8068 84.7765 32.0227 85.1136 33.3864 85.1136C34.6515 85.1136 35.7538 84.8561 36.6932 84.3409C37.6402 83.8258 38.3712 83.0985 38.8864 82.1591C39.4091 81.2121 39.6705 80.0985 39.6705 78.8182L40.5795 78.9886H33.9205V76.0909H43.0682V78.7386C43.0682 80.6932 42.6515 82.3902 41.8182 83.8295C40.9924 85.2614 39.8485 86.3674 38.3864 87.1477C36.9318 87.928 35.2652 88.3182 33.3864 88.3182C31.2803 88.3182 29.4318 87.8333 27.8409 86.8636C26.2576 85.8939 25.0227 84.5189 24.1364 82.7386C23.25 80.9508 22.8068 78.8295 22.8068 76.375C22.8068 74.5189 23.0644 72.8523 23.5795 71.375C24.0947 69.8977 24.8182 68.6439 25.75 67.6136C26.6894 66.5758 27.7917 65.7841 29.0568 65.2386C30.3295 64.6856 31.7197 64.4091 33.2273 64.4091C34.4848 64.4091 35.6553 64.5947 36.7386 64.9659C37.8295 65.3371 38.7992 65.8636 39.6477 66.5455C40.5038 67.2273 41.2121 68.0379 41.7727 68.9773C42.3333 69.9091 42.7121 70.9432 42.9091 72.0795H39.3068ZM54.6051 88.3523C52.9688 88.3523 51.5407 87.9773 50.321 87.2273C49.1013 86.4773 48.1544 85.428 47.4801 84.0795C46.8059 82.7311 46.4688 81.1553 46.4688 79.3523C46.4688 77.5417 46.8059 75.9583 47.4801 74.6023C48.1544 73.2462 49.1013 72.1932 50.321 71.4432C51.5407 70.6932 52.9688 70.3182 54.6051 70.3182C56.2415 70.3182 57.6695 70.6932 58.8892 71.4432C60.1089 72.1932 61.0559 73.2462 61.7301 74.6023C62.4044 75.9583 62.7415 77.5417 62.7415 79.3523C62.7415 81.1553 62.4044 82.7311 61.7301 84.0795C61.0559 85.428 60.1089 86.4773 58.8892 87.2273C57.6695 87.9773 56.2415 88.3523 54.6051 88.3523ZM54.6165 85.5C55.6771 85.5 56.5559 85.2197 57.2528 84.6591C57.9498 84.0985 58.465 83.3523 58.7983 82.4205C59.1392 81.4886 59.3097 80.4621 59.3097 79.3409C59.3097 78.2273 59.1392 77.2045 58.7983 76.2727C58.465 75.3333 57.9498 74.5795 57.2528 74.0114C56.5559 73.4432 55.6771 73.1591 54.6165 73.1591C53.5483 73.1591 52.6619 73.4432 51.9574 74.0114C51.2604 74.5795 50.7415 75.3333 50.4006 76.2727C50.0672 77.2045 49.9006 78.2273 49.9006 79.3409C49.9006 80.4621 50.0672 81.4886 50.4006 82.4205C50.7415 83.3523 51.2604 84.0985 51.9574 84.6591C52.6619 85.2197 53.5483 85.5 54.6165 85.5ZM79.6136 74.8068L76.5341 75.3523C76.4053 74.9583 76.2008 74.5833 75.9205 74.2273C75.6477 73.8712 75.2765 73.5795 74.8068 73.3523C74.3371 73.125 73.75 73.0114 73.0455 73.0114C72.0833 73.0114 71.2803 73.2273 70.6364 73.6591C69.9924 74.0833 69.6705 74.6326 69.6705 75.3068C69.6705 75.8902 69.8864 76.3598 70.3182 76.7159C70.75 77.072 71.447 77.3636 72.4091 77.5909L75.1818 78.2273C76.7879 78.5985 77.9848 79.1705 78.7727 79.9432C79.5606 80.7159 79.9545 81.7197 79.9545 82.9545C79.9545 84 79.6515 84.9318 79.0455 85.75C78.447 86.5606 77.6098 87.197 76.5341 87.6591C75.4659 88.1212 74.2273 88.3523 72.8182 88.3523C70.8636 88.3523 69.2689 87.9356 68.0341 87.1023C66.7992 86.2614 66.0417 85.0682 65.7614 83.5227L69.0455 83.0227C69.25 83.8788 69.6705 84.5265 70.3068 84.9659C70.9432 85.3977 71.7727 85.6136 72.7955 85.6136C73.9091 85.6136 74.7992 85.3826 75.4659 84.9205C76.1326 84.4508 76.4659 83.8788 76.4659 83.2045C76.4659 82.6591 76.2614 82.2008 75.8523 81.8295C75.4508 81.4583 74.8333 81.178 74 80.9886L71.0455 80.3409C69.4167 79.9697 68.2121 79.3788 67.4318 78.5682C66.6591 77.7576 66.2727 76.7311 66.2727 75.4886C66.2727 74.4583 66.5606 73.5568 67.1364 72.7841C67.7121 72.0114 68.5076 71.4091 69.5227 70.9773C70.5379 70.5379 71.7008 70.3182 73.0114 70.3182C74.8977 70.3182 76.3826 70.7273 77.4659 71.5455C78.5492 72.3561 79.2652 73.4432 79.6136 74.8068ZM91.8381 70.5455V73.2727H82.304V70.5455H91.8381ZM84.8608 66.3636H88.2585V82.875C88.2585 83.5341 88.357 84.0303 88.554 84.3636C88.7509 84.6894 89.0047 84.9129 89.3153 85.0341C89.6335 85.1477 89.9782 85.2045 90.3494 85.2045C90.6222 85.2045 90.8608 85.1856 91.0653 85.1477C91.2699 85.1098 91.429 85.0795 91.5426 85.0568L92.1562 87.8636C91.9593 87.9394 91.679 88.0152 91.3153 88.0909C90.9517 88.1742 90.4972 88.2197 89.9517 88.2273C89.0578 88.2424 88.2244 88.0833 87.4517 87.75C86.679 87.4167 86.054 86.9015 85.5767 86.2045C85.0994 85.5076 84.8608 84.6326 84.8608 83.5795V66.3636ZM100.676 88.3864C99.5701 88.3864 98.5701 88.1818 97.6761 87.7727C96.7822 87.3561 96.0739 86.7538 95.5511 85.9659C95.036 85.178 94.7784 84.2121 94.7784 83.0682C94.7784 82.0833 94.9678 81.2727 95.3466 80.6364C95.7254 80 96.2367 79.4962 96.8807 79.125C97.5246 78.7538 98.2443 78.4735 99.0398 78.2841C99.8352 78.0947 100.646 77.9508 101.472 77.8523C102.517 77.7311 103.366 77.6326 104.017 77.5568C104.669 77.4735 105.142 77.3409 105.438 77.1591C105.733 76.9773 105.881 76.6818 105.881 76.2727V76.1932C105.881 75.2008 105.6 74.4318 105.04 73.8864C104.487 73.3409 103.661 73.0682 102.562 73.0682C101.419 73.0682 100.517 73.322 99.858 73.8295C99.2064 74.3295 98.7557 74.8864 98.5057 75.5L95.3125 74.7727C95.6913 73.7121 96.2443 72.8561 96.9716 72.2045C97.7064 71.5455 98.5511 71.0682 99.5057 70.7727C100.46 70.4697 101.464 70.3182 102.517 70.3182C103.214 70.3182 103.953 70.4015 104.733 70.5682C105.521 70.7273 106.256 71.0227 106.938 71.4545C107.627 71.8864 108.191 72.5038 108.631 73.3068C109.07 74.1023 109.29 75.1364 109.29 76.4091V88H105.972V85.6136H105.835C105.616 86.053 105.286 86.4848 104.847 86.9091C104.407 87.3333 103.843 87.6856 103.153 87.9659C102.464 88.2462 101.638 88.3864 100.676 88.3864ZM101.415 85.6591C102.354 85.6591 103.157 85.4735 103.824 85.1023C104.498 84.7311 105.009 84.2462 105.358 83.6477C105.714 83.0417 105.892 82.3939 105.892 81.7045V79.4545C105.771 79.5758 105.536 79.6894 105.188 79.7955C104.847 79.8939 104.456 79.9811 104.017 80.0568C103.578 80.125 103.15 80.1894 102.733 80.25C102.316 80.303 101.968 80.3485 101.688 80.3864C101.028 80.4697 100.426 80.6098 99.8807 80.8068C99.3428 81.0038 98.911 81.2879 98.5852 81.6591C98.267 82.0227 98.108 82.5076 98.108 83.1136C98.108 83.9545 98.4186 84.5909 99.0398 85.0227C99.661 85.447 100.453 85.6591 101.415 85.6591ZM113.815 88V70.5455H117.099V73.3182H117.281C117.599 72.3788 118.16 71.6402 118.963 71.1023C119.774 70.5568 120.69 70.2841 121.713 70.2841C121.925 70.2841 122.175 70.2917 122.463 70.3068C122.759 70.322 122.99 70.3409 123.156 70.3636V73.6136C123.02 73.5758 122.777 73.5341 122.429 73.4886C122.08 73.4356 121.732 73.4091 121.384 73.4091C120.58 73.4091 119.865 73.5795 119.236 73.9205C118.615 74.2538 118.122 74.7197 117.759 75.3182C117.395 75.9091 117.213 76.5833 117.213 77.3409V88H113.815ZM126.097 88V70.5455H129.494V88H126.097ZM127.812 67.8523C127.222 67.8523 126.714 67.6553 126.29 67.2614C125.873 66.8598 125.665 66.3826 125.665 65.8295C125.665 65.2689 125.873 64.7917 126.29 64.3977C126.714 63.9962 127.222 63.7955 127.812 63.7955C128.403 63.7955 128.907 63.9962 129.324 64.3977C129.748 64.7917 129.96 65.2689 129.96 65.8295C129.96 66.3826 129.748 66.8598 129.324 67.2614C128.907 67.6553 128.403 67.8523 127.812 67.8523ZM139.145 88.3864C138.039 88.3864 137.039 88.1818 136.145 87.7727C135.251 87.3561 134.543 86.7538 134.02 85.9659C133.505 85.178 133.247 84.2121 133.247 83.0682C133.247 82.0833 133.437 81.2727 133.815 80.6364C134.194 80 134.705 79.4962 135.349 79.125C135.993 78.7538 136.713 78.4735 137.509 78.2841C138.304 78.0947 139.115 77.9508 139.94 77.8523C140.986 77.7311 141.834 77.6326 142.486 77.5568C143.137 77.4735 143.611 77.3409 143.906 77.1591C144.202 76.9773 144.349 76.6818 144.349 76.2727V76.1932C144.349 75.2008 144.069 74.4318 143.509 73.8864C142.955 73.3409 142.13 73.0682 141.031 73.0682C139.887 73.0682 138.986 73.322 138.327 73.8295C137.675 74.3295 137.224 74.8864 136.974 75.5L133.781 74.7727C134.16 73.7121 134.713 72.8561 135.44 72.2045C136.175 71.5455 137.02 71.0682 137.974 70.7727C138.929 70.4697 139.933 70.3182 140.986 70.3182C141.683 70.3182 142.421 70.4015 143.202 70.5682C143.99 70.7273 144.724 71.0227 145.406 71.4545C146.096 71.8864 146.66 72.5038 147.099 73.3068C147.539 74.1023 147.759 75.1364 147.759 76.4091V88H144.44V85.6136H144.304C144.084 86.053 143.755 86.4848 143.315 86.9091C142.876 87.3333 142.312 87.6856 141.622 87.9659C140.933 88.2462 140.107 88.3864 139.145 88.3864ZM139.884 85.6591C140.823 85.6591 141.626 85.4735 142.293 85.1023C142.967 84.7311 143.478 84.2462 143.827 83.6477C144.183 83.0417 144.361 82.3939 144.361 81.7045V79.4545C144.24 79.5758 144.005 79.6894 143.656 79.7955C143.315 79.8939 142.925 79.9811 142.486 80.0568C142.046 80.125 141.618 80.1894 141.202 80.25C140.785 80.303 140.437 80.3485 140.156 80.3864C139.497 80.4697 138.895 80.6098 138.349 80.8068C137.812 81.0038 137.38 81.2879 137.054 81.6591C136.736 82.0227 136.577 82.5076 136.577 83.1136C136.577 83.9545 136.887 84.5909 137.509 85.0227C138.13 85.447 138.921 85.6591 139.884 85.6591ZM167.287 88.3409C165.878 88.3409 164.62 87.9811 163.514 87.2614C162.416 86.5341 161.552 85.5 160.923 84.1591C160.302 82.8106 159.991 81.1932 159.991 79.3068C159.991 77.4205 160.306 75.8068 160.935 74.4659C161.571 73.125 162.442 72.0985 163.548 71.3864C164.654 70.6742 165.908 70.3182 167.31 70.3182C168.393 70.3182 169.264 70.5 169.923 70.8636C170.59 71.2197 171.105 71.6364 171.469 72.1136C171.84 72.5909 172.128 73.0114 172.332 73.375H172.537V64.7273H175.935V88H172.616V85.2841H172.332C172.128 85.6553 171.832 86.0795 171.446 86.5568C171.067 87.0341 170.545 87.4508 169.878 87.8068C169.211 88.1629 168.348 88.3409 167.287 88.3409ZM168.037 85.4432C169.014 85.4432 169.84 85.1856 170.514 84.6705C171.196 84.1477 171.711 83.4242 172.06 82.5C172.416 81.5758 172.594 80.5 172.594 79.2727C172.594 78.0606 172.42 77 172.071 76.0909C171.723 75.1818 171.211 74.4735 170.537 73.9659C169.863 73.4583 169.029 73.2045 168.037 73.2045C167.014 73.2045 166.162 73.4697 165.48 74C164.798 74.5303 164.283 75.2538 163.935 76.1705C163.594 77.0871 163.423 78.1212 163.423 79.2727C163.423 80.4394 163.598 81.4886 163.946 82.4205C164.295 83.3523 164.81 84.0909 165.491 84.6364C166.181 85.1742 167.029 85.4432 168.037 85.4432ZM188.307 88.3523C186.587 88.3523 185.106 87.9848 183.864 87.25C182.629 86.5076 181.674 85.4659 181 84.125C180.333 82.7765 180 81.197 180 79.3864C180 77.5985 180.333 76.0227 181 74.6591C181.674 73.2955 182.614 72.2311 183.818 71.4659C185.03 70.7008 186.447 70.3182 188.068 70.3182C189.053 70.3182 190.008 70.4811 190.932 70.8068C191.856 71.1326 192.686 71.6439 193.42 72.3409C194.155 73.0379 194.735 73.9432 195.159 75.0568C195.583 76.1629 195.795 77.5076 195.795 79.0909V80.2955H181.92V77.75H192.466C192.466 76.8561 192.284 76.0644 191.92 75.375C191.557 74.678 191.045 74.1288 190.386 73.7273C189.735 73.3258 188.97 73.125 188.091 73.125C187.136 73.125 186.303 73.3598 185.591 73.8295C184.886 74.2917 184.341 74.8977 183.955 75.6477C183.576 76.3902 183.386 77.197 183.386 78.0682V80.0568C183.386 81.2235 183.591 82.2159 184 83.0341C184.417 83.8523 184.996 84.4773 185.739 84.9091C186.481 85.3333 187.348 85.5455 188.341 85.5455C188.985 85.5455 189.572 85.4545 190.102 85.2727C190.633 85.0833 191.091 84.803 191.477 84.4318C191.864 84.0606 192.159 83.6023 192.364 83.0568L195.58 83.6364C195.322 84.5833 194.86 85.4129 194.193 86.125C193.534 86.8295 192.705 87.3788 191.705 87.7727C190.712 88.1591 189.58 88.3523 188.307 88.3523ZM208.034 88V70.5455H211.432V88H208.034ZM209.75 67.8523C209.159 67.8523 208.652 67.6553 208.227 67.2614C207.811 66.8598 207.602 66.3826 207.602 65.8295C207.602 65.2689 207.811 64.7917 208.227 64.3977C208.652 63.9962 209.159 63.7955 209.75 63.7955C210.341 63.7955 210.845 63.9962 211.261 64.3977C211.686 64.7917 211.898 65.2689 211.898 65.8295C211.898 66.3826 211.686 66.8598 211.261 67.2614C210.845 67.6553 210.341 67.8523 209.75 67.8523ZM219.401 77.6364V88H216.003V70.5455H219.264V73.3864H219.48C219.882 72.4621 220.51 71.7197 221.366 71.1591C222.23 70.5985 223.317 70.3182 224.628 70.3182C225.817 70.3182 226.859 70.5682 227.753 71.0682C228.647 71.5606 229.34 72.2955 229.832 73.2727C230.325 74.25 230.571 75.4583 230.571 76.8977V88H227.173V77.3068C227.173 76.0417 226.844 75.053 226.185 74.3409C225.526 73.6212 224.62 73.2614 223.469 73.2614C222.681 73.2614 221.98 73.4318 221.366 73.7727C220.76 74.1136 220.279 74.6136 219.923 75.2727C219.575 75.9242 219.401 76.7121 219.401 77.6364ZM235.128 88V70.5455H238.526V88H235.128ZM236.844 67.8523C236.253 67.8523 235.745 67.6553 235.321 67.2614C234.904 66.8598 234.696 66.3826 234.696 65.8295C234.696 65.2689 234.904 64.7917 235.321 64.3977C235.745 63.9962 236.253 63.7955 236.844 63.7955C237.435 63.7955 237.938 63.9962 238.355 64.3977C238.779 64.7917 238.991 65.2689 238.991 65.8295C238.991 66.3826 238.779 66.8598 238.355 67.2614C237.938 67.6553 237.435 67.8523 236.844 67.8523ZM250.449 88.3523C248.759 88.3523 247.305 87.9697 246.085 87.2045C244.873 86.4318 243.941 85.3674 243.29 84.0114C242.638 82.6553 242.312 81.1023 242.312 79.3523C242.312 77.5795 242.646 76.0152 243.312 74.6591C243.979 73.2955 244.919 72.2311 246.131 71.4659C247.343 70.7008 248.771 70.3182 250.415 70.3182C251.741 70.3182 252.922 70.5644 253.96 71.0568C254.998 71.5417 255.835 72.2235 256.472 73.1023C257.116 73.9811 257.498 75.0076 257.619 76.1818H254.312C254.131 75.3636 253.714 74.6591 253.062 74.0682C252.419 73.4773 251.555 73.1818 250.472 73.1818C249.525 73.1818 248.695 73.4318 247.983 73.9318C247.278 74.4242 246.729 75.1288 246.335 76.0455C245.941 76.9545 245.744 78.0303 245.744 79.2727C245.744 80.5455 245.938 81.6439 246.324 82.5682C246.71 83.4924 247.256 84.2083 247.96 84.7159C248.672 85.2235 249.509 85.4773 250.472 85.4773C251.116 85.4773 251.699 85.3598 252.222 85.125C252.752 84.8826 253.195 84.5379 253.551 84.0909C253.915 83.6439 254.169 83.1061 254.312 82.4773H257.619C257.498 83.6061 257.131 84.6136 256.517 85.5C255.903 86.3864 255.081 87.0833 254.051 87.5909C253.028 88.0985 251.828 88.3523 250.449 88.3523ZM261.253 88V70.5455H264.651V88H261.253ZM262.969 67.8523C262.378 67.8523 261.87 67.6553 261.446 67.2614C261.029 66.8598 260.821 66.3826 260.821 65.8295C260.821 65.2689 261.029 64.7917 261.446 64.3977C261.87 63.9962 262.378 63.7955 262.969 63.7955C263.56 63.7955 264.063 63.9962 264.48 64.3977C264.904 64.7917 265.116 65.2689 265.116 65.8295C265.116 66.3826 264.904 66.8598 264.48 67.2614C264.063 67.6553 263.56 67.8523 262.969 67.8523ZM274.301 88.3864C273.195 88.3864 272.195 88.1818 271.301 87.7727C270.407 87.3561 269.699 86.7538 269.176 85.9659C268.661 85.178 268.403 84.2121 268.403 83.0682C268.403 82.0833 268.593 81.2727 268.972 80.6364C269.35 80 269.862 79.4962 270.506 79.125C271.15 78.7538 271.869 78.4735 272.665 78.2841C273.46 78.0947 274.271 77.9508 275.097 77.8523C276.142 77.7311 276.991 77.6326 277.642 77.5568C278.294 77.4735 278.767 77.3409 279.062 77.1591C279.358 76.9773 279.506 76.6818 279.506 76.2727V76.1932C279.506 75.2008 279.225 74.4318 278.665 73.8864C278.112 73.3409 277.286 73.0682 276.188 73.0682C275.044 73.0682 274.142 73.322 273.483 73.8295C272.831 74.3295 272.381 74.8864 272.131 75.5L268.938 74.7727C269.316 73.7121 269.869 72.8561 270.597 72.2045C271.331 71.5455 272.176 71.0682 273.131 70.7727C274.085 70.4697 275.089 70.3182 276.142 70.3182C276.839 70.3182 277.578 70.4015 278.358 70.5682C279.146 70.7273 279.881 71.0227 280.562 71.4545C281.252 71.8864 281.816 72.5038 282.256 73.3068C282.695 74.1023 282.915 75.1364 282.915 76.4091V88H279.597V85.6136H279.46C279.241 86.053 278.911 86.4848 278.472 86.9091C278.032 87.3333 277.468 87.6856 276.778 87.9659C276.089 88.2462 275.263 88.3864 274.301 88.3864ZM275.04 85.6591C275.979 85.6591 276.782 85.4735 277.449 85.1023C278.123 84.7311 278.634 84.2462 278.983 83.6477C279.339 83.0417 279.517 82.3939 279.517 81.7045V79.4545C279.396 79.5758 279.161 79.6894 278.812 79.7955C278.472 79.8939 278.081 79.9811 277.642 80.0568C277.203 80.125 276.775 80.1894 276.358 80.25C275.941 80.303 275.593 80.3485 275.312 80.3864C274.653 80.4697 274.051 80.6098 273.506 80.8068C272.968 81.0038 272.536 81.2879 272.21 81.6591C271.892 82.0227 271.733 82.5076 271.733 83.1136C271.733 83.9545 272.044 84.5909 272.665 85.0227C273.286 85.447 274.078 85.6591 275.04 85.6591ZM287.44 88V70.5455H290.724V73.3182H290.906C291.224 72.3788 291.785 71.6402 292.588 71.1023C293.399 70.5568 294.315 70.2841 295.338 70.2841C295.55 70.2841 295.8 70.2917 296.088 70.3068C296.384 70.322 296.615 70.3409 296.781 70.3636V73.6136C296.645 73.5758 296.402 73.5341 296.054 73.4886C295.705 73.4356 295.357 73.4091 295.009 73.4091C294.205 73.4091 293.49 73.5795 292.861 73.9205C292.24 74.2538 291.747 74.7197 291.384 75.3182C291.02 75.9091 290.838 76.5833 290.838 77.3409V88H287.44ZM319.247 80.7614V70.5455H322.656V88H319.315V84.9773H319.134C318.732 85.9091 318.088 86.6856 317.202 87.3068C316.323 87.9205 315.228 88.2273 313.918 88.2273C312.796 88.2273 311.804 87.9811 310.94 87.4886C310.084 86.9886 309.41 86.25 308.918 85.2727C308.433 84.2955 308.19 83.0871 308.19 81.6477V70.5455H311.588V81.2386C311.588 82.428 311.918 83.375 312.577 84.0795C313.236 84.7841 314.092 85.1364 315.145 85.1364C315.781 85.1364 316.414 84.9773 317.043 84.6591C317.679 84.3409 318.205 83.8598 318.622 83.2159C319.046 82.572 319.255 81.7538 319.247 80.7614ZM327.222 88V70.5455H330.483V73.3864H330.699C331.063 72.4242 331.657 71.6742 332.483 71.1364C333.309 70.5909 334.297 70.3182 335.449 70.3182C336.616 70.3182 337.593 70.5909 338.381 71.1364C339.176 71.6818 339.763 72.4318 340.142 73.3864H340.324C340.741 72.4545 341.403 71.7121 342.312 71.1591C343.222 70.5985 344.305 70.3182 345.562 70.3182C347.146 70.3182 348.438 70.8144 349.438 71.8068C350.445 72.7992 350.949 74.2955 350.949 76.2955V88H347.551V76.6136C347.551 75.4318 347.229 74.5758 346.585 74.0455C345.941 73.5152 345.172 73.25 344.278 73.25C343.172 73.25 342.312 73.5909 341.699 74.2727C341.085 74.947 340.778 75.8144 340.778 76.875V88H337.392V76.3977C337.392 75.4508 337.097 74.6894 336.506 74.1136C335.915 73.5379 335.146 73.25 334.199 73.25C333.555 73.25 332.96 73.4205 332.415 73.7614C331.877 74.0947 331.441 74.5606 331.108 75.1591C330.782 75.7576 330.619 76.4508 330.619 77.2386V88H327.222ZM367.369 77.6364V88H363.972V70.5455H367.233V73.3864H367.449C367.85 72.4621 368.479 71.7197 369.335 71.1591C370.199 70.5985 371.286 70.3182 372.597 70.3182C373.786 70.3182 374.828 70.5682 375.722 71.0682C376.616 71.5606 377.309 72.2955 377.801 73.2727C378.294 74.25 378.54 75.4583 378.54 76.8977V88H375.142V77.3068C375.142 76.0417 374.813 75.053 374.153 74.3409C373.494 73.6212 372.589 73.2614 371.438 73.2614C370.65 73.2614 369.949 73.4318 369.335 73.7727C368.729 74.1136 368.248 74.6136 367.892 75.2727C367.544 75.9242 367.369 76.7121 367.369 77.6364ZM390.449 88.3523C388.813 88.3523 387.384 87.9773 386.165 87.2273C384.945 86.4773 383.998 85.428 383.324 84.0795C382.65 82.7311 382.312 81.1553 382.312 79.3523C382.312 77.5417 382.65 75.9583 383.324 74.6023C383.998 73.2462 384.945 72.1932 386.165 71.4432C387.384 70.6932 388.813 70.3182 390.449 70.3182C392.085 70.3182 393.513 70.6932 394.733 71.4432C395.953 72.1932 396.9 73.2462 397.574 74.6023C398.248 75.9583 398.585 77.5417 398.585 79.3523C398.585 81.1553 398.248 82.7311 397.574 84.0795C396.9 85.428 395.953 86.4773 394.733 87.2273C393.513 87.9773 392.085 88.3523 390.449 88.3523ZM390.46 85.5C391.521 85.5 392.4 85.2197 393.097 84.6591C393.794 84.0985 394.309 83.3523 394.642 82.4205C394.983 81.4886 395.153 80.4621 395.153 79.3409C395.153 78.2273 394.983 77.2045 394.642 76.2727C394.309 75.3333 393.794 74.5795 393.097 74.0114C392.4 73.4432 391.521 73.1591 390.46 73.1591C389.392 73.1591 388.506 73.4432 387.801 74.0114C387.104 74.5795 386.585 75.3333 386.244 76.2727C385.911 77.2045 385.744 78.2273 385.744 79.3409C385.744 80.4621 385.911 81.4886 386.244 82.4205C386.585 83.3523 387.104 84.0985 387.801 84.6591C388.506 85.2197 389.392 85.5 390.46 85.5ZM416.716 70.5455L410.386 88H406.75L400.409 70.5455H404.057L408.477 83.9773H408.659L413.068 70.5455H416.716ZM426.668 88.3523C425.031 88.3523 423.603 87.9773 422.384 87.2273C421.164 86.4773 420.217 85.428 419.543 84.0795C418.868 82.7311 418.531 81.1553 418.531 79.3523C418.531 77.5417 418.868 75.9583 419.543 74.6023C420.217 73.2462 421.164 72.1932 422.384 71.4432C423.603 70.6932 425.031 70.3182 426.668 70.3182C428.304 70.3182 429.732 70.6932 430.952 71.4432C432.171 72.1932 433.118 73.2462 433.793 74.6023C434.467 75.9583 434.804 77.5417 434.804 79.3523C434.804 81.1553 434.467 82.7311 433.793 84.0795C433.118 85.428 432.171 86.4773 430.952 87.2273C429.732 87.9773 428.304 88.3523 426.668 88.3523ZM426.679 85.5C427.74 85.5 428.618 85.2197 429.315 84.6591C430.012 84.0985 430.527 83.3523 430.861 82.4205C431.202 81.4886 431.372 80.4621 431.372 79.3409C431.372 78.2273 431.202 77.2045 430.861 76.2727C430.527 75.3333 430.012 74.5795 429.315 74.0114C428.618 73.4432 427.74 73.1591 426.679 73.1591C425.611 73.1591 424.724 73.4432 424.02 74.0114C423.323 74.5795 422.804 75.3333 422.463 76.2727C422.13 77.2045 421.963 78.2273 421.963 79.3409C421.963 80.4621 422.13 81.4886 422.463 82.4205C422.804 83.3523 423.323 84.0985 424.02 84.6591C424.724 85.2197 425.611 85.5 426.679 85.5ZM26.6818 116.636V127H23.2841V103.727H26.6364V112.386H26.8523C27.2614 111.447 27.8864 110.701 28.7273 110.148C29.5682 109.595 30.6667 109.318 32.0227 109.318C33.2197 109.318 34.2652 109.564 35.1591 110.057C36.0606 110.549 36.7576 111.284 37.25 112.261C37.75 113.231 38 114.443 38 115.898V127H34.6023V116.307C34.6023 115.027 34.2727 114.034 33.6136 113.33C32.9545 112.617 32.0379 112.261 30.8636 112.261C30.0606 112.261 29.3409 112.432 28.7045 112.773C28.0758 113.114 27.5795 113.614 27.2159 114.273C26.8598 114.924 26.6818 115.712 26.6818 116.636ZM47.6136 127.386C46.5076 127.386 45.5076 127.182 44.6136 126.773C43.7197 126.356 43.0114 125.754 42.4886 124.966C41.9735 124.178 41.7159 123.212 41.7159 122.068C41.7159 121.083 41.9053 120.273 42.2841 119.636C42.6629 119 43.1742 118.496 43.8182 118.125C44.4621 117.754 45.1818 117.473 45.9773 117.284C46.7727 117.095 47.5833 116.951 48.4091 116.852C49.4545 116.731 50.303 116.633 50.9545 116.557C51.6061 116.473 52.0795 116.341 52.375 116.159C52.6705 115.977 52.8182 115.682 52.8182 115.273V115.193C52.8182 114.201 52.5379 113.432 51.9773 112.886C51.4242 112.341 50.5985 112.068 49.5 112.068C48.3561 112.068 47.4545 112.322 46.7955 112.83C46.1439 113.33 45.6932 113.886 45.4432 114.5L42.25 113.773C42.6288 112.712 43.1818 111.856 43.9091 111.205C44.6439 110.545 45.4886 110.068 46.4432 109.773C47.3977 109.47 48.4015 109.318 49.4545 109.318C50.1515 109.318 50.8902 109.402 51.6705 109.568C52.4583 109.727 53.1932 110.023 53.875 110.455C54.5644 110.886 55.1288 111.504 55.5682 112.307C56.0076 113.102 56.2273 114.136 56.2273 115.409V127H52.9091V124.614H52.7727C52.553 125.053 52.2235 125.485 51.7841 125.909C51.3447 126.333 50.7803 126.686 50.0909 126.966C49.4015 127.246 48.5758 127.386 47.6136 127.386ZM48.3523 124.659C49.2917 124.659 50.0947 124.473 50.7614 124.102C51.4356 123.731 51.947 123.246 52.2955 122.648C52.6515 122.042 52.8295 121.394 52.8295 120.705V118.455C52.7083 118.576 52.4735 118.689 52.125 118.795C51.7841 118.894 51.3939 118.981 50.9545 119.057C50.5152 119.125 50.0871 119.189 49.6705 119.25C49.2538 119.303 48.9053 119.348 48.625 119.386C47.9659 119.47 47.3636 119.61 46.8182 119.807C46.2803 120.004 45.8485 120.288 45.5227 120.659C45.2045 121.023 45.0455 121.508 45.0455 122.114C45.0455 122.955 45.3561 123.591 45.9773 124.023C46.5985 124.447 47.3902 124.659 48.3523 124.659ZM48.2273 107.216L50.8864 101.977H54.4659L50.9432 107.216H48.2273ZM61.0256 127V103.727H64.4233V112.375H64.6278C64.8248 112.011 65.1089 111.591 65.4801 111.114C65.8513 110.636 66.3665 110.22 67.0256 109.864C67.6847 109.5 68.5559 109.318 69.6392 109.318C71.0483 109.318 72.3059 109.674 73.4119 110.386C74.518 111.098 75.3854 112.125 76.0142 113.466C76.6506 114.807 76.9688 116.42 76.9688 118.307C76.9688 120.193 76.6544 121.811 76.0256 123.159C75.3968 124.5 74.5331 125.534 73.4347 126.261C72.3362 126.981 71.0824 127.341 69.6733 127.341C68.6127 127.341 67.7453 127.163 67.071 126.807C66.4044 126.451 65.8816 126.034 65.5028 125.557C65.1241 125.08 64.8324 124.655 64.6278 124.284H64.3438V127H61.0256ZM64.3551 118.273C64.3551 119.5 64.5331 120.576 64.8892 121.5C65.2453 122.424 65.7604 123.148 66.4347 123.67C67.1089 124.186 67.9347 124.443 68.9119 124.443C69.9271 124.443 70.7756 124.174 71.4574 123.636C72.1392 123.091 72.6544 122.352 73.0028 121.42C73.3589 120.489 73.5369 119.439 73.5369 118.273C73.5369 117.121 73.3627 116.087 73.0142 115.17C72.6733 114.254 72.1581 113.53 71.4688 113C70.7869 112.47 69.9347 112.205 68.9119 112.205C67.9271 112.205 67.0938 112.458 66.4119 112.966C65.7377 113.473 65.2263 114.182 64.8778 115.091C64.5294 116 64.3551 117.061 64.3551 118.273ZM80.7841 127V109.545H84.1818V127H80.7841ZM82.5 106.852C81.9091 106.852 81.4015 106.655 80.9773 106.261C80.5606 105.86 80.3523 105.383 80.3523 104.83C80.3523 104.269 80.5606 103.792 80.9773 103.398C81.4015 102.996 81.9091 102.795 82.5 102.795C83.0909 102.795 83.5947 102.996 84.0114 103.398C84.4356 103.792 84.6477 104.269 84.6477 104.83C84.6477 105.383 84.4356 105.86 84.0114 106.261C83.5947 106.655 83.0909 106.852 82.5 106.852ZM96.9006 109.545V112.273H87.3665V109.545H96.9006ZM89.9233 105.364H93.321V121.875C93.321 122.534 93.4195 123.03 93.6165 123.364C93.8134 123.689 94.0672 123.913 94.3778 124.034C94.696 124.148 95.0407 124.205 95.4119 124.205C95.6847 124.205 95.9233 124.186 96.1278 124.148C96.3324 124.11 96.4915 124.08 96.6051 124.057L97.2188 126.864C97.0218 126.939 96.7415 127.015 96.3778 127.091C96.0142 127.174 95.5597 127.22 95.0142 127.227C94.1203 127.242 93.2869 127.083 92.5142 126.75C91.7415 126.417 91.1165 125.902 90.6392 125.205C90.1619 124.508 89.9233 123.633 89.9233 122.58V105.364ZM107.824 127.352C106.188 127.352 104.759 126.977 103.54 126.227C102.32 125.477 101.373 124.428 100.699 123.08C100.025 121.731 99.6875 120.155 99.6875 118.352C99.6875 116.542 100.025 114.958 100.699 113.602C101.373 112.246 102.32 111.193 103.54 110.443C104.759 109.693 106.188 109.318 107.824 109.318C109.46 109.318 110.888 109.693 112.108 110.443C113.328 111.193 114.275 112.246 114.949 113.602C115.623 114.958 115.96 116.542 115.96 118.352C115.96 120.155 115.623 121.731 114.949 123.08C114.275 124.428 113.328 125.477 112.108 126.227C110.888 126.977 109.46 127.352 107.824 127.352ZM107.835 124.5C108.896 124.5 109.775 124.22 110.472 123.659C111.169 123.098 111.684 122.352 112.017 121.42C112.358 120.489 112.528 119.462 112.528 118.341C112.528 117.227 112.358 116.205 112.017 115.273C111.684 114.333 111.169 113.58 110.472 113.011C109.775 112.443 108.896 112.159 107.835 112.159C106.767 112.159 105.881 112.443 105.176 113.011C104.479 113.58 103.96 114.333 103.619 115.273C103.286 116.205 103.119 117.227 103.119 118.341C103.119 119.462 103.286 120.489 103.619 121.42C103.96 122.352 104.479 123.098 105.176 123.659C105.881 124.22 106.767 124.5 107.835 124.5ZM124.037 103.727L123.741 120.307H120.594L120.298 103.727H124.037ZM122.173 127.216C121.545 127.216 121.007 126.996 120.56 126.557C120.113 126.11 119.893 125.572 119.901 124.943C119.893 124.322 120.113 123.792 120.56 123.352C121.007 122.905 121.545 122.682 122.173 122.682C122.787 122.682 123.317 122.905 123.764 123.352C124.211 123.792 124.438 124.322 124.446 124.943C124.438 125.36 124.329 125.742 124.116 126.091C123.912 126.432 123.639 126.705 123.298 126.909C122.957 127.114 122.582 127.216 122.173 127.216Z" fill="black"/>
</svg>
