<svg width="90" height="90" viewBox="0 0 90 90" fill="none" xmlns="http://www.w3.org/2000/svg">
<g clip-path="url(#clip0_26_62)">
<path d="M76.5056 13.0841C72.3803 8.91873 67.4668 5.61657 62.0518 3.37021C56.6368 1.12386 50.8287 -0.0217171 44.9663 0.000311766C20.4019 0.000311766 0.3825 20.0141 0.36 44.5841C0.36 52.4534 2.41875 60.1091 6.30563 66.8872L0 90.0003L23.6475 83.8016C30.1865 87.3691 37.5174 89.2357 44.9663 89.2297H44.9888C69.5588 89.2297 89.5725 69.2159 89.595 44.6234C89.6 38.7625 88.4456 32.9585 86.1982 27.5456C83.9507 22.1327 80.6604 17.2179 76.5056 13.0841ZM44.9663 81.6809C38.3241 81.6757 31.805 79.8886 26.0888 76.5059L24.7387 75.6959L10.71 79.3747L14.4562 65.6891L13.5788 64.2772C9.86516 58.3728 7.90114 51.5367 7.91437 44.5616C7.91437 24.1653 24.5475 7.52656 44.9888 7.52656C49.8585 7.51783 54.6819 8.4731 59.1807 10.3373C63.6796 12.2015 67.7649 14.9378 71.2012 18.3884C74.6488 21.8261 77.382 25.9121 79.2433 30.4109C81.1046 34.9097 82.0572 39.7323 82.0462 44.6009C82.0238 65.0703 65.3906 81.6809 44.9663 81.6809ZM65.3006 53.9272C64.1925 53.3703 58.7194 50.6759 57.69 50.2934C56.6662 49.9278 55.9181 49.7366 55.1869 50.8503C54.4387 51.9584 52.3013 54.4841 51.66 55.2097C51.0187 55.9578 50.355 56.0422 49.2412 55.4909C48.1331 54.9284 44.5387 53.7584 40.2863 49.9503C36.9675 46.9972 34.7456 43.3409 34.0819 42.2328C33.4406 41.1191 34.02 40.5228 34.5769 39.9659C35.0662 39.4709 35.685 38.6609 36.2419 38.0197C36.8044 37.3784 36.99 36.9059 37.3556 36.1634C37.7212 35.4097 37.5469 34.7684 37.2712 34.2116C36.99 33.6547 34.7681 28.1591 33.8288 25.9428C32.9287 23.7547 32.0119 24.0584 31.3256 24.0303C30.6844 23.9909 29.9363 23.9909 29.1881 23.9909C28.6232 24.0053 28.0674 24.1361 27.5554 24.3752C27.0434 24.6143 26.5862 24.9564 26.2125 25.3803C25.1887 26.4941 22.3256 29.1884 22.3256 34.6841C22.3256 40.1797 26.3194 45.4616 26.8819 46.2097C27.4331 46.9578 34.7231 58.2022 45.9112 63.0397C48.555 64.1928 50.6363 64.8734 52.2619 65.3909C54.9338 66.2459 57.3469 66.1166 59.2706 65.8409C61.4081 65.5147 65.8575 63.1409 66.7969 60.5366C67.7194 57.9266 67.7194 55.6991 67.4381 55.2322C67.1625 54.7597 66.4144 54.4841 65.3006 53.9272Z" fill="white"/>
</g>
<defs>
<clipPath id="clip0_26_62">
<rect width="90" height="90" fill="white"/>
</clipPath>
</defs>
</svg>
